<svg xmlns="http://www.w3.org/2000/svg" xmlns:xlink="http://www.w3.org/1999/xlink" version="1.1" id="Your_Icon" x="0px" y="0px" width="100px" height="100px" viewBox="0 0 100 100" enable-background="new 0 0 100 100" xml:space="preserve">
<path fill="#000000" d="M100.045,45.407c0-7.259-3.468-14.047-9.766-19.112c-6.124-4.926-14.232-7.639-22.83-7.639  c-6.241,0-12.223,1.431-17.377,4.099c-5.154-2.668-11.136-4.099-17.377-4.099c-8.598,0-16.706,2.713-22.83,7.639  c-6.297,5.066-9.766,11.853-9.766,19.112c0,6.433,2.761,12.556,7.809,17.393L5.238,81.231l15.733-10.849  c3.73,1.18,7.667,1.777,11.725,1.777c6.135,0,12.232-1.374,17.377-3.85c5.145,2.476,11.242,3.85,17.377,3.85  c4.058,0,7.995-0.597,11.725-1.777l15.733,10.849l-2.672-18.431C97.284,57.964,100.045,51.84,100.045,45.407z M21.469,64.792  l-1.318-0.473l-7.72,5.323l1.301-8.97l-1.13-0.977c-4.543-3.928-7.045-9.002-7.045-14.288c0-11.742,12.175-21.295,27.139-21.295  c4.28,0,8.331,0.783,11.936,2.174c-0.004,0.003-0.008,0.006-0.012,0.009c-6.298,5.066-9.766,11.853-9.766,19.112  c0,7.85,3.282,14.521,9.513,19.386c-3.665,1.267-7.675,1.91-11.671,1.91C28.777,66.703,25,66.06,21.469,64.792z M56.623,56.025  h-13.1c-0.25-0.365-0.487-0.74-0.711-1.123h14.522C57.11,55.285,56.873,55.66,56.623,56.025z M51.054,61.482  c-0.321,0.219-0.648,0.43-0.981,0.636c-0.333-0.205-0.66-0.417-0.981-0.636H51.054z M59.428,49.445H40.718  c-0.077-0.369-0.143-0.743-0.198-1.124h19.106C59.57,48.702,59.504,49.076,59.428,49.445z M40.505,42.865  c0.057-0.378,0.127-0.752,0.209-1.123h18.717c0.082,0.371,0.152,0.746,0.21,1.123H40.505z M42.93,36.285  c0.231-0.381,0.476-0.755,0.735-1.123h12.816c0.259,0.368,0.504,0.743,0.735,1.123H42.93z M49.137,29.705  c0.305-0.22,0.618-0.433,0.936-0.642c0.318,0.209,0.63,0.422,0.936,0.642H49.137z M87.714,69.642l-7.72-5.323l-1.318,0.473  c-3.53,1.268-7.308,1.91-11.227,1.91c-3.996,0-8.006-0.642-11.671-1.91c6.231-4.865,9.513-11.536,9.513-19.386  c0-7.259-3.468-14.047-9.766-19.112c-0.004-0.003-0.008-0.006-0.012-0.009c3.604-1.391,7.655-2.174,11.936-2.174  c14.964,0,27.139,9.553,27.139,21.295c0,5.286-2.502,10.36-7.045,14.288l-1.13,0.977L87.714,69.642z"/>
</svg>