<svg xmlns="http://www.w3.org/2000/svg" xmlns:xlink="http://www.w3.org/1999/xlink" version="1.1" id="Your_Icon" x="0px" y="0px" width="100px" height="100px" viewBox="0 0 100 100" enable-background="new 0 0 100 100" xml:space="preserve">
<path fill="#000000" d="M69.101,28.048c0.105-0.979,0.044-1.652,0.123-2.083c3.753,0.328,7.07-2.456,7.397-6.205  c0.326-3.753-2.458-7.071-6.21-7.399c-3.372-0.295-6.687,2.199-6.952,5.235c-0.069,0.784,0.512,1.475,1.295,1.543  c0.783,0.068,1.476-0.511,1.544-1.295c0.126-1.439,2.111-2.797,3.865-2.644c2.187,0.191,3.807,2.125,3.616,4.31  c-0.191,2.184-2.122,3.805-4.309,3.614c-2.192-0.192-2.731,2.207-3.196,4.645l0.004-0.002L69.101,28.048z"/>
<path fill="#000000" d="M33.862,27.959c-0.203-1.071-0.496-1.748-0.557-2.21c3.673-0.838,5.977-4.504,5.139-8.174  c-0.84-3.672-4.507-5.977-8.179-5.139c-3.301,0.753-5.691,4.143-5.013,7.114c0.175,0.768,0.939,1.247,1.706,1.072  c0.767-0.175,1.248-0.938,1.073-1.706c-0.321-1.408,1.152-3.309,2.869-3.701c2.14-0.488,4.275,0.856,4.763,2.994  c0.488,2.137-0.854,4.273-2.994,4.761c-2.033,0.464-1.939,2.688-1.664,5.016l2.515-0.218L33.862,27.959z"/>
<polygon fill="#000000" points="86.621,37.945 81.937,54.463 70.566,50.045 70.566,85.893 57.123,85.893 76.553,89.125   82.162,55.413 92.329,61.445 99.751,45.731 "/>
<polygon fill="#000000" points="28.585,50.047 17.216,54.464 12.59,38.157 0,45.314 7.135,61.162 17.409,55.316 22.403,89.125   44.27,85.894 28.585,85.894 "/>
<path fill="#000000" d="M69.58,85.024V48.717l11.707,4.548l5.037-17.763l-16.742-6.5l-3.031-0.114l-2.453,1.379l-9.083-5.511  c-1.086-0.654-2.449-1.063-3.886-1.236c0.081-1.748-0.251-2.784-0.241-3.41c3.991-0.311,6.981-3.806,6.67-7.793  c-0.313-3.99-3.809-6.981-7.798-6.671c-3.586,0.279-6.624,3.471-6.373,6.698c0.065,0.834,0.793,1.456,1.626,1.391  c0.833-0.065,1.457-0.793,1.392-1.626c-0.119-1.53,1.725-3.299,3.59-3.444c2.325-0.181,4.36,1.563,4.541,3.886  c0.181,2.322-1.56,4.358-3.885,4.539c-2.626,0.204-2.48,3.489-2.563,6.422c-1.451,0.169-2.833,0.582-3.929,1.246l-8.77,5.321  l-2.119-1.191l-3.678,0.114l-16.746,6.501l5.038,17.763l11.706-4.548v36.308L69.58,85.024z M45.726,27.349  c1.977-1.191,5.746-1.187,7.719-0.001l7.621,4.624l-11.159,6.273l-11.491-6.46L45.726,27.349z"/>
</svg>