<svg xmlns="http://www.w3.org/2000/svg" xmlns:xlink="http://www.w3.org/1999/xlink" version="1.1" id="Layer_1" x="0px" y="0px" width="100px" height="100px" viewBox="0 0 100 100" enable-background="new 0 0 100 100" xml:space="preserve">
<path fill="#000000" d="M65.722,56.204l0.026,0.016l-14.75,11.394L36.253,56.22l0.027-0.016c-2.387-1.775-3.962-4.597-3.962-7.805  c0-5.383,4.362-9.747,9.749-9.747c4.002,0,7.432,2.417,8.932,5.866c1.501-3.449,4.936-5.866,8.938-5.866  c5.381,0,9.746,4.364,9.746,9.747C69.683,51.607,68.111,54.429,65.722,56.204z M51,11.026c-21.525,0-38.974,17.449-38.974,38.974  c0,12.283,5.688,23.232,14.567,30.376l-14.567,8.599H51c21.525,0,38.975-17.449,38.975-38.975  C89.975,28.475,72.523,11.026,51,11.026z M50.999,85.507H24.961l8.242-4.786C22.617,74.574,15.493,63.123,15.493,50  c0-19.61,15.896-35.506,35.506-35.506c19.61,0,35.507,15.896,35.507,35.506C86.506,69.609,70.609,85.507,50.999,85.507z"/>
</svg>