<svg xmlns="http://www.w3.org/2000/svg" xmlns:xlink="http://www.w3.org/1999/xlink" version="1.1" id="Layer_7" x="0px" y="0px" viewBox="21.162 1.625 57.676 100" enable-background="new 21.162 1.625 57.676 100" xml:space="preserve" height="100px" width="100px">
<path fill="#424242" d="M31.106,48.929c-0.134-0.078-0.283-0.151-0.444-0.222l-3.486,1.291V73.85c1.43-0.084,2.69-0.351,3.554-0.745  c0.214,1.014,1.147,1.734,2.205,1.639c1.141-0.103,1.984-1.11,1.882-2.251l-1.943-21.7C32.786,49.816,32.035,49.063,31.106,48.929z"/>
<path fill="#424242" d="M64.524,52.088c0,2.261,1.867,2.261,2.874,2.261c0.163,0,2.01-0.008,3.322-0.015l2.104-0.556v-0.435  c-1.161,0.003-3.938-0.015-4.005-0.006c-0.934-0.089-1.183-0.396-1.183-1.249c0,0,0-13.553,0.01-13.632  c0.052-0.644,0.322-0.912,1.11-0.992c0.032-0.007,2.756-0.009,4.067-0.005v-1.017c-0.006,0-0.015,0-0.022,0  c-0.249,0-5.156,0-5.405,0c-0.768,0-2.054,0-2.604,1.021c0,0-0.778-0.03-0.892-0.059l4.07-3.271  c-0.339-0.142-0.657-0.32-0.951-0.525l-3.968,3.182c-0.311,0.248-0.415,0.585-0.29,0.903c0.176,0.466,0.799,0.764,1.598,0.764h0.176  c-0.01,0.079-0.01,0.158-0.01,0.247V52.088z M65.572,38.454c0.052-0.644,0.322-0.912,1.11-0.992c0.062-0.01,0.124-0.01,0.197-0.02  c0,0-0.01,0.01-0.01,0.02c-0.145,0.257-0.239,0.585-0.259,0.992c-0.01,0.08-0.01,13.633-0.01,13.633c0,0.535,0.104,0.951,0.28,1.259  c-1.048-0.071-1.318-0.367-1.318-1.259C65.562,52.088,65.562,38.534,65.572,38.454z"/>
<path fill="#424242" d="M72.824,74.32h-6.225v-0.519h6.225v-1.037h-8.466c-0.187,0-0.353-0.031-0.456-0.062l4.336-3.647l-0.72-0.348  c-0.099-0.048-0.177-0.115-0.27-0.169l-4.197,3.52c-0.311,0.259-0.415,0.612-0.29,0.944c0.176,0.488,0.799,0.799,1.598,0.799h1.203  v0.56c-0.892,0.145-1.608,0.695-1.743,1.39l-2.303,11.547c-0.062,0.332-0.031,0.851,0.477,1.473c0.456,0.56,2.407,2.407,7.978,2.407  c0.982,0,1.944-0.121,2.853-0.312V74.32z"/>
<path fill="#424242" d="M73.862,8.399c-1.183-1.193-2.874-1.774-5.187-1.774H31.326c-2.314,0-4.005,0.581-5.187,1.774  c-2.148,2.158-2.116,5.831-2.085,10.074c0.01,0.539,0.01,16.485,0.01,16.485v60.629c0,0.571,0.467,1.037,1.037,1.037  s1.037-0.467,1.037-1.037V49.275l5.602-2.075c1.618-0.591,2.697-2.148,2.697-3.87v-4.254c0-1.722-1.079-3.278-2.697-3.87  l-0.196-0.073c0.195-0.292,0.3-0.63,0.3-0.986v-8.767l0.519,0.207v-5.675l-6.241-2.496c-0.015-3.334,0.099-6.155,1.49-7.557  C28.379,9.084,29.593,8.7,31.326,8.7h37.349c1.733,0,2.946,0.384,3.714,1.162c1.535,1.546,1.515,4.814,1.484,8.601  c0,0.259-0.01,0.529,0,0.799l-5.353,1.982c-1.618,0.602-2.697,2.158-2.697,3.88v4.243c0,1.722,1.079,3.278,2.697,3.88l5.343,1.982  v19.349l-4.752,1.255c-1.66,0.436-2.895,1.888-3.05,3.6l-0.01,0.052l0.031,3.641c-0.145,1.67,0.259,3.859,1.888,4.648l5.519,2.666  c0.125,0.062,0.249,0.114,0.373,0.156v24.993c0,0.571,0.467,1.037,1.037,1.037c0.571,0,1.037-0.467,1.037-1.037l0.01-77.115  C75.978,14.23,76.009,10.557,73.862,8.399z M32.363,39.077v4.254c0,0.851-0.539,1.629-1.338,1.93l-4.886,1.795V35.352l4.886,1.795  C31.824,37.448,32.363,38.226,32.363,39.077z M26.138,18.545l5.187,2.065v3.444l-5.187-2.065V18.545z M26.138,23.1l4.669,1.867  v9.182c0,0.197-0.083,0.384-0.218,0.519c-0.034,0.034-0.084,0.04-0.124,0.067l-4.3-1.593c-0.012-0.055-0.026-0.109-0.026-0.166  C26.138,32.873,26.138,23.1,26.138,23.1z M73.862,68.302l-4.99-2.397c-0.581-0.28-0.82-1.567-0.716-2.635v-0.062l-0.031-3.631  c0.104-0.83,0.705-1.525,1.515-1.743l4.222-1.12V68.302z M73.862,33.008l-4.627-1.712c-0.799-0.29-1.338-1.069-1.338-1.93v-4.243  c0-0.861,0.539-1.639,1.338-1.93l4.627-1.712V33.008z"/>
</svg>