<svg xmlns="http://www.w3.org/2000/svg" xmlns:xlink="http://www.w3.org/1999/xlink" version="1.1" id="Layer_1" x="0px" y="0px" width="100px" height="100px" viewBox="0 0 100 100" enable-background="new 0 0 100 100" xml:space="preserve">
<path fill="#FF8A80" d="M94.467,39.192c0,7.43-3.639,13.962-9.173,18.074l0.063,0.038l-2.537,1.959  c-0.754-0.398-1.6-0.646-2.512-0.646h-7.234v-7.235c0-2.986-2.421-5.407-5.407-5.407c-2.985,0-5.407,2.421-5.407,5.407v7.235h-7.234  c-2.986,0-5.407,2.421-5.407,5.406c0,2.987,2.421,5.407,5.407,5.407h7.234v5.715l-11.055,8.539L17.06,57.305l0.063-0.038  C11.595,53.154,7.95,46.622,7.95,39.192c0-12.458,10.102-22.565,22.572-22.565c9.268,0,17.208,5.597,20.683,13.583  c3.475-7.985,11.429-13.583,20.696-13.583C84.359,16.627,94.467,26.735,94.467,39.192z M80.309,60.209h-8.825v-8.826  c0-2.107-1.709-3.816-3.816-3.816c-2.108,0-3.816,1.709-3.816,3.816v8.826h-8.825c-2.107,0-3.816,1.709-3.816,3.815  c0,2.108,1.709,3.817,3.816,3.817h8.825v8.824c0,2.109,1.708,3.818,3.816,3.818c2.107,0,3.816-1.709,3.816-3.818v-8.824h8.825  c2.108,0,3.817-1.709,3.817-3.817C84.126,61.918,82.417,60.209,80.309,60.209z"/>
</svg>